<svg xmlns="http://www.w3.org/2000/svg" version="1.1" xmlns:xlink="http://www.w3.org/1999/xlink" xmlns:svgjs="http://svgjs.dev/svgjs" width="1440" height="560" preserveAspectRatio="none" viewBox="0 0 1440 560"><g mask="url(&quot;#SvgjsMask1502&quot;)" fill="none"><path d="M25.89 -83.97L160.13 -6.47L160.13 148.53L25.89 226.03L-108.35 148.53L-108.35 -6.47zM160.13 148.53L294.37 226.03L294.37 381.03L160.13 458.53L25.89 381.03L25.89 226.03zM25.89 381.03L160.13 458.53L160.13 613.53L25.89 691.03L-108.35 613.53L-108.35 458.53zM294.37 -83.97L428.6 -6.47L428.6 148.53L294.37 226.03L160.13 148.53L160.13 -6.47zM831.32 381.03L965.55 458.53L965.55 613.53L831.32 691.03L697.08 613.53L697.08 458.53zM1099.79 381.03L1234.03 458.53L1234.03 613.53L1099.79 691.03L965.55 613.53L965.55 458.53zM1368.27 -83.97L1502.51 -6.47L1502.51 148.53L1368.27 226.03L1234.03 148.53L1234.03 -6.47zM1368.27 381.03L1502.51 458.53L1502.51 613.53L1368.27 691.03L1234.03 613.53L1234.03 458.53z" stroke="rgba(158, 243, 122, 1)" stroke-width="2"></path><path d="M10.39 -83.97 a15.5 15.5 0 1 0 31 0 a15.5 15.5 0 1 0 -31 0zM144.63 -6.47 a15.5 15.5 0 1 0 31 0 a15.5 15.5 0 1 0 -31 0zM144.63 148.53 a15.5 15.5 0 1 0 31 0 a15.5 15.5 0 1 0 -31 0zM10.39 226.03 a15.5 15.5 0 1 0 31 0 a15.5 15.5 0 1 0 -31 0zM-123.85 148.53 a15.5 15.5 0 1 0 31 0 a15.5 15.5 0 1 0 -31 0zM-123.85 -6.47 a15.5 15.5 0 1 0 31 0 a15.5 15.5 0 1 0 -31 0zM278.87 226.03 a15.5 15.5 0 1 0 31 0 a15.5 15.5 0 1 0 -31 0zM278.87 381.03 a15.5 15.5 0 1 0 31 0 a15.5 15.5 0 1 0 -31 0zM144.63 458.53 a15.5 15.5 0 1 0 31 0 a15.5 15.5 0 1 0 -31 0zM10.39 381.03 a15.5 15.5 0 1 0 31 0 a15.5 15.5 0 1 0 -31 0zM144.63 613.53 a15.5 15.5 0 1 0 31 0 a15.5 15.5 0 1 0 -31 0zM10.39 691.03 a15.5 15.5 0 1 0 31 0 a15.5 15.5 0 1 0 -31 0zM-123.85 613.53 a15.5 15.5 0 1 0 31 0 a15.5 15.5 0 1 0 -31 0zM-123.85 458.53 a15.5 15.5 0 1 0 31 0 a15.5 15.5 0 1 0 -31 0zM278.87 -83.97 a15.5 15.5 0 1 0 31 0 a15.5 15.5 0 1 0 -31 0zM413.1 -6.47 a15.5 15.5 0 1 0 31 0 a15.5 15.5 0 1 0 -31 0zM413.1 148.53 a15.5 15.5 0 1 0 31 0 a15.5 15.5 0 1 0 -31 0zM815.82 381.03 a15.5 15.5 0 1 0 31 0 a15.5 15.5 0 1 0 -31 0zM950.05 458.53 a15.5 15.5 0 1 0 31 0 a15.5 15.5 0 1 0 -31 0zM950.05 613.53 a15.5 15.5 0 1 0 31 0 a15.5 15.5 0 1 0 -31 0zM815.82 691.03 a15.5 15.5 0 1 0 31 0 a15.5 15.5 0 1 0 -31 0zM681.58 613.53 a15.5 15.5 0 1 0 31 0 a15.5 15.5 0 1 0 -31 0zM681.58 458.53 a15.5 15.5 0 1 0 31 0 a15.5 15.5 0 1 0 -31 0zM1084.29 381.03 a15.5 15.5 0 1 0 31 0 a15.5 15.5 0 1 0 -31 0zM1218.53 458.53 a15.5 15.5 0 1 0 31 0 a15.5 15.5 0 1 0 -31 0zM1218.53 613.53 a15.5 15.5 0 1 0 31 0 a15.5 15.5 0 1 0 -31 0zM1084.29 691.03 a15.5 15.5 0 1 0 31 0 a15.5 15.5 0 1 0 -31 0zM1352.77 -83.97 a15.5 15.5 0 1 0 31 0 a15.5 15.5 0 1 0 -31 0zM1487.01 -6.47 a15.5 15.5 0 1 0 31 0 a15.5 15.5 0 1 0 -31 0zM1487.01 148.53 a15.5 15.5 0 1 0 31 0 a15.5 15.5 0 1 0 -31 0zM1352.77 226.03 a15.5 15.5 0 1 0 31 0 a15.5 15.5 0 1 0 -31 0zM1218.53 148.53 a15.5 15.5 0 1 0 31 0 a15.5 15.5 0 1 0 -31 0zM1218.53 -6.47 a15.5 15.5 0 1 0 31 0 a15.5 15.5 0 1 0 -31 0zM1352.77 381.03 a15.5 15.5 0 1 0 31 0 a15.5 15.5 0 1 0 -31 0zM1487.01 458.53 a15.5 15.5 0 1 0 31 0 a15.5 15.5 0 1 0 -31 0zM1487.01 613.53 a15.5 15.5 0 1 0 31 0 a15.5 15.5 0 1 0 -31 0zM1352.77 691.03 a15.5 15.5 0 1 0 31 0 a15.5 15.5 0 1 0 -31 0z" fill="rgba(158, 243, 122, 1)"></path><path d="M1071.57 225.32L1211 305.82L1211 466.82L1071.57 547.32L932.13 466.82L932.13 305.82zM932.13 466.82L1071.57 547.32L1071.57 708.32L932.13 788.82L792.7 708.32L792.7 547.32zM1211 -16.18L1350.44 64.32L1350.44 225.32L1211 305.82L1071.57 225.32L1071.57 64.32zM1350.44 225.32L1489.87 305.82L1489.87 466.82L1350.44 547.32L1211 466.82L1211 305.82zM1489.87 -16.18L1629.3 64.32L1629.3 225.32L1489.87 305.82L1350.44 225.32L1350.44 64.32z" stroke="rgba(158, 243, 122, 1)" stroke-width="2"></path></g><defs><mask id="SvgjsMask1502"><rect width="1440" height="560" fill="#ffffff"></rect></mask></defs></svg>