<svg width="23" height="23" viewBox="0 0 23 23" fill="none" xmlns="http://www.w3.org/2000/svg">
<path d="M16.8633 1.75H6.86328C4.10186 1.75 1.86328 3.98858 1.86328 6.75V16.75C1.86328 19.5114 4.10186 21.75 6.86328 21.75H16.8633C19.6247 21.75 21.8633 19.5114 21.8633 16.75V6.75C21.8633 3.98858 19.6247 1.75 16.8633 1.75Z" stroke="white" stroke-width="2" stroke-linecap="round" stroke-linejoin="round"/>
<path d="M15.8635 11.1203C15.9869 11.9525 15.8447 12.8025 15.4572 13.5493C15.0697 14.2961 14.4566 14.9017 13.7051 15.28C12.9536 15.6582 12.1019 15.7899 11.2713 15.6562C10.4406 15.5226 9.67324 15.1304 9.07832 14.5355C8.48339 13.9405 8.09121 13.1732 7.95754 12.3425C7.82388 11.5119 7.95554 10.6602 8.3338 9.90868C8.71206 9.15716 9.31766 8.54404 10.0645 8.15654C10.8113 7.76904 11.6612 7.62689 12.4935 7.7503C13.3424 7.87619 14.1283 8.27176 14.7352 8.87861C15.342 9.48545 15.7376 10.2714 15.8635 11.1203Z" stroke="white" stroke-width="2" stroke-linecap="round" stroke-linejoin="round"/>
<path d="M17.3633 6.25H17.3733" stroke="white" stroke-width="2" stroke-linecap="round" stroke-linejoin="round"/>
</svg>
