<svg width="17" height="17" viewBox="0 0 17 17" fill="none" xmlns="http://www.w3.org/2000/svg">
<path d="M16.056 12.2271V14.4507C16.0568 14.6572 16.0145 14.8615 15.9318 15.0506C15.8491 15.2398 15.7278 15.4096 15.5757 15.5491C15.4236 15.6887 15.244 15.7949 15.0485 15.8611C14.8529 15.9272 14.6457 15.9518 14.4401 15.9332C12.1592 15.6853 9.9683 14.906 8.04335 13.6576C6.25243 12.5196 4.73405 11.0012 3.59602 9.2103C2.34334 7.2766 1.56377 5.07502 1.32047 2.7839C1.30195 2.57893 1.32631 2.37235 1.392 2.17731C1.45769 1.98226 1.56327 1.80304 1.70203 1.65104C1.84078 1.49904 2.00966 1.37759 2.19792 1.29444C2.38618 1.21128 2.58969 1.16823 2.7955 1.16804H5.01917C5.37889 1.1645 5.72762 1.29188 6.00037 1.52645C6.27312 1.76101 6.45126 2.08675 6.50161 2.44294C6.59547 3.15456 6.76953 3.85329 7.02047 4.52578C7.12019 4.79108 7.14178 5.07941 7.08266 5.3566C7.02354 5.63379 6.8862 5.88822 6.68692 6.08975L5.74556 7.03111C6.80073 8.88679 8.33721 10.4233 10.1929 11.4784L11.1342 10.5371C11.3358 10.3378 11.5902 10.2005 11.8674 10.1413C12.1446 10.0822 12.4329 10.1038 12.6982 10.2035C13.3707 10.4545 14.0694 10.6285 14.7811 10.7224C15.1411 10.7732 15.47 10.9545 15.705 11.232C15.9401 11.5094 16.065 11.8636 16.056 12.2271Z" stroke="white" stroke-linecap="round" stroke-linejoin="round"/>
</svg>
