<svg width="25" height="19" viewBox="0 0 25 19" fill="none" xmlns="http://www.w3.org/2000/svg">
<path d="M23.4039 4.17C23.2851 3.69541 23.0431 3.26057 22.7025 2.90941C22.3619 2.55824 21.9346 2.30318 21.4639 2.17C19.7439 1.75 12.8639 1.75 12.8639 1.75C12.8639 1.75 5.98385 1.75 4.26385 2.21C3.7931 2.34318 3.36583 2.59824 3.0252 2.94941C2.68457 3.30057 2.44264 3.73541 2.32385 4.21C2.00907 5.95556 1.85509 7.72631 1.86385 9.5C1.85263 11.287 2.00662 13.0713 2.32385 14.83C2.45481 15.2898 2.70216 15.7081 3.042 16.0445C3.38183 16.3808 3.80267 16.6238 4.26385 16.75C5.98385 17.21 12.8639 17.21 12.8639 17.21C12.8639 17.21 19.7439 17.21 21.4639 16.75C21.9346 16.6168 22.3619 16.3618 22.7025 16.0106C23.0431 15.6594 23.2851 15.2246 23.4039 14.75C23.7162 13.0176 23.8702 11.2603 23.8639 9.5C23.8751 7.71295 23.7211 5.9287 23.4039 4.17V4.17Z" stroke="#FEFEFE" stroke-width="2" stroke-linecap="round" stroke-linejoin="round"/>
<path d="M10.6138 12.7705L16.3638 9.50047L10.6138 6.23047V12.7705Z" stroke="#FEFEFE" stroke-width="2" stroke-linecap="round" stroke-linejoin="round"/>
</svg>
